<?xml version="1.0" encoding="utf-8"?>
<!-- Generator: Adobe Illustrator 21.0.0, SVG Export Plug-In . SVG Version: 6.00 Build 0)  -->
<svg version="1.1" id="Layer_1" xmlns="http://www.w3.org/2000/svg" xmlns:xlink="http://www.w3.org/1999/xlink" x="0px" y="0px"
	 viewBox="0 0 514 514" style="enable-background:new 0 0 514 514;" xml:space="preserve">
<style type="text/css">
	.st0{fill:#FA7B06;}
</style>
<g>
	<path class="st0" d="M255.8-0.1C114.3,0.5-0.3,115.7,0,257.4c0.3,142,115.4,257,256.6,256.6C398,514.6,514.2,399.7,514,256.7
		C513.8,113.8,397.4-0.6,255.8-0.1L255.8-0.1z M412.1,365.2c-2.5,3.6-2.8,3.6-4.9-0.1c-11.4-20-27.5-34.3-50.3-39.9
		c-4.8-1.2-10-1.7-14.9-1.7c-56.6-0.1-113.1-0.1-169.7-0.1c-22.8,0-41,10-55.6,26.9c-4.1,4.7-7.2,10.3-10.8,15.5
		c-0.5,0.7-1,1.4-2,2.9c-1.8-2.5-3.3-4.5-4.7-6.5c-16.3-24.3-26.6-50.9-30.6-79.7c-4.2-30.6-1.3-60.6,9.6-89.6
		c19.5-52.2,55.1-89.3,106.3-111.1c28.3-12,58-16.1,88.7-13.5c22,1.8,43,7.2,62.9,16.3c20.9,9.6,39.5,22.7,55.6,39.2
		c25.8,26.4,42.9,57.6,50.6,93.8c5.3,24.7,5.6,49.4,0.9,74.3C438.2,318.5,427.7,342.9,412.1,365.2L412.1,365.2z"/>
	<path class="st0" d="M256.8,127c44.5,0,82.3,34.9,82.8,82.2c0.5,46.5-37.1,83.7-83.5,83.7c-44.7,0-82.5-37.6-82.3-82.2
		C174.1,161.4,213.2,126.9,256.8,127z"/>
</g>
</svg>
